<svg width="670" height="670" viewBox="0 0 670 670" fill="none" xmlns="http://www.w3.org/2000/svg">
<path d="M335 121C365.713 121 394.509 129.406 419.161 144.051C426.283 148.282 428.627 157.485 424.396 164.607C420.165 171.73 410.961 174.074 403.839 169.843C383.695 157.876 360.173 151 335 151C274.079 151 222.546 191.365 205.762 246.844C203.363 254.773 194.99 259.256 187.061 256.857C179.131 254.458 174.648 246.086 177.047 238.156C197.553 170.375 260.491 121 335 121Z" fill="black"/>
<path d="M575 282C575 231.742 534.258 191 484 191C433.742 191 393 231.742 393 282C393 301.892 399.366 320.254 410.174 335.217C415.024 341.932 413.512 351.309 406.797 356.16C400.081 361.011 390.704 359.499 385.854 352.783C371.476 332.878 363 308.407 363 282C363 215.174 417.174 161 484 161C550.826 161 605 215.174 605 282C605 348.826 550.826 403 484 403C475.716 403 469 396.284 469 388C469 379.716 475.716 373 484 373C534.258 373 575 332.258 575 282Z" fill="black"/>
<path d="M57 340C57 279.791 105.841 231 166.066 231C213.843 231 254.415 261.693 269.177 304.393C271.883 312.222 267.731 320.763 259.901 323.47C252.072 326.176 243.53 322.024 240.823 314.194C230.115 283.221 200.673 261 166.066 261C122.389 261 87 296.38 87 340C87 383.62 122.389 419 166.066 419C174.351 419 181.066 425.716 181.066 434C181.066 442.284 174.351 449 166.066 449C105.841 449 57 400.209 57 340Z" fill="black"/>
<path d="M598 419C606.284 419 613 425.716 613 434C613 442.284 606.284 449 598 449H167C158.716 449 152 442.284 152 434C152 425.716 158.716 419 167 419H598Z" fill="black"/>
<path d="M498 469C506.284 469 513 475.716 513 484C513 492.284 506.284 499 498 499L228 499C219.716 499 213 492.284 213 484C213 475.716 219.716 469 228 469L498 469Z" fill="black"/>
<path d="M398 519C406.284 519 413 525.716 413 534C413 542.284 406.284 549 398 549L328 549C319.716 549 313 542.284 313 534C313 525.716 319.716 519 328 519L398 519Z" fill="black"/>
<path d="M483 373C491.284 373 498 379.716 498 388C498 396.284 491.284 403 483 403L242 403C233.716 403 227 396.284 227 388C227 379.716 233.716 373 242 373L483 373Z" fill="black"/>
</svg>
